<svg width="28" height="28" viewBox="0 0 28 28" fill="none" xmlns="http://www.w3.org/2000/svg">
<g clip-path="url(#clip0_4170_9218)">
<circle cx="13.9798" cy="8.75841" r="3.2215" stroke="white" stroke-width="1.07383"/>
<mask id="path-2-inside-1_4170_9218" fill="white">
<path d="M18.8122 21.6446C19.9983 21.6446 20.9858 20.6701 20.7117 19.5161C20.3941 18.1792 19.7799 16.9471 18.9154 15.9497C17.6065 14.4393 15.8311 13.5908 13.9799 13.5908C12.1287 13.5908 10.3534 14.4393 9.04437 15.9497C8.17996 16.9471 7.5657 18.1792 7.24815 19.5161C6.97405 20.6701 7.96154 21.6446 9.14766 21.6446L13.9799 21.6446H18.8122Z"/>
</mask>
<path d="M18.8122 21.6446C19.9983 21.6446 20.9858 20.6701 20.7117 19.5161C20.3941 18.1792 19.7799 16.9471 18.9154 15.9497C17.6065 14.4393 15.8311 13.5908 13.9799 13.5908C12.1287 13.5908 10.3534 14.4393 9.04437 15.9497C8.17996 16.9471 7.5657 18.1792 7.24815 19.5161C6.97405 20.6701 7.96154 21.6446 9.14766 21.6446L13.9799 21.6446H18.8122Z" stroke="white" stroke-width="2.14766" mask="url(#path-2-inside-1_4170_9218)"/>
</g>
<defs>
<clipPath id="clip0_4170_9218">
<rect width="28" height="28" fill="white"/>
</clipPath>
</defs>
</svg>
